<svg xmlns="http://www.w3.org/2000/svg" viewBox="0 0 110 110"><defs><style>.cls-1{fill:#dd916f;}.cls-2{fill:#ffecdc;}</style></defs><title>Send</title><g id="Capa_2" data-name="Capa 2"><g id="Capa_2-2" data-name="Capa 2"><circle class="cls-1" cx="55" cy="55" r="55"/><path class="cls-2" d="M74.47,60.3,41.57,27.4a3.42,3.42,0,0,1,0-4.83h0a3.42,3.42,0,0,1,4.83,0L78.79,55a.71.71,0,0,1,0,1Z"/><path class="cls-2" d="M78.79,56,46.4,88.42a3.42,3.42,0,0,1-4.83,0h0a3.42,3.42,0,0,1,0-4.83L74.47,50.7,78.79,55A.71.71,0,0,1,78.79,56Z"/></g></g></svg>